<?xml version="1.0" encoding="UTF-8"?>
<svg width="295px" height="252px" viewBox="0 0 295 252" version="1.1" xmlns="http://www.w3.org/2000/svg" xmlns:xlink="http://www.w3.org/1999/xlink">
    <title>edu</title>
    <g id="Page-1" stroke="none" stroke-width="1" fill="none" fill-rule="evenodd">
        <g id="edu" fill="#FFFFFF" fill-rule="nonzero">
            <path d="M49,206.140536 L49,153 L106.13,190.435433 C131.265197,206.904024 163.734803,206.904024 188.87,190.435433 L246,153 L246,206.140536 C246,208.430372 245.259373,210.658439 243.889286,212.490308 L243.875214,212.504418 L243.861143,212.53264 L243.818929,212.589082 L243.692286,212.730188 L243.523429,212.955958 L243.3405,213.195838 L242.130357,214.621009 C240.710699,216.236552 239.222445,217.790152 237.669714,219.277509 C233.771929,223.04504 227.960429,227.94142 220.080429,232.795468 C204.306357,242.531784 180.413071,252 147.5,252 C114.586929,252 90.7077143,242.545895 74.9055,232.795468 C68.5822424,228.931249 62.6860861,224.404584 57.3162143,219.291619 C55.1858812,217.230393 53.1795151,215.044104 51.3077143,212.744299 L51.1810714,212.603193 L51.1388571,212.53264 L51.1388571,212.504418 C49.760375,210.669826 49.0101339,208.437585 49,206.140536 L49,206.140536 Z" id="Path"></path>
            <path d="M290.2266,99.194476 L177.282657,173.193227 C159.189374,185.051739 135.813463,185.051739 117.72018,173.193227 L21.0716312,109.872384 L21.0716312,185.434787 C21.0716312,191.269793 16.3545859,196 10.5358156,196 C4.71704531,196 0,191.269793 0,185.434787 L0,97.3913463 C0,96.1516947 0.210716312,94.9683908 0.604053427,93.8696087 C-1.02475019,89.2467461 0.731999826,84.1076229 4.84647517,81.4590053 L118.127564,8.62947107 C136.029411,-2.87649036 158.973425,-2.87649036 176.875272,8.62947107 L290.156361,81.4590053 C293.162403,83.3943805 294.98573,86.7253774 295,90.3075911 C295.014103,93.8898048 293.217217,97.2352192 290.2266,99.194476 L290.2266,99.194476 Z" id="Path"></path>
        </g>
    </g>
</svg>