<?xml version="1.0" encoding="UTF-8"?>
<svg width="1366px" height="1366px" viewBox="0 0 1366 1366" version="1.1" xmlns="http://www.w3.org/2000/svg" xmlns:xlink="http://www.w3.org/1999/xlink">
    <title>brandfetch_facebook_symbol_idufmfndzy</title>
    <g id="Page-1" stroke="none" stroke-width="1" fill="none" fill-rule="evenodd">
        <g id="brandfetch_facebook_symbol_idufmfndzy" fill-rule="nonzero">
            <g id="g12" transform="translate(682.666650, 682.666650) scale(-1, 1) rotate(-180.000000) translate(-682.666650, -682.666650) translate(0.000000, 0.000000)">
                <path d="M682.66665,1365.3333 C305.639992,1365.3333 0,1059.69331 0,682.66665 C0,341.927991 249.641327,59.5067985 575.999986,8.29322646 L575.999986,485.333321 L402.666657,485.333321 L402.666657,682.66665 L575.999986,682.66665 L575.999986,833.066646 C575.999986,1004.15997 677.917316,1098.66664 833.853312,1098.66664 C908.542644,1098.66664 986.666642,1085.33331 986.666642,1085.33331 L986.666642,917.33331 L900.583977,917.33331 C815.77998,917.33331 789.333314,864.710645 789.333314,810.72398 L789.333314,682.66665 L978.666642,682.66665 L948.399976,485.333321 L789.333314,485.333321 L789.333314,8.29322646 C1115.69197,59.5067985 1365.3333,341.927991 1365.3333,682.66665 C1365.3333,1059.69331 1059.69331,1365.3333 682.66665,1365.3333 Z" id="path14" fill="#FFFFFF"></path>
                <path d="M978.666642,682.66665 L789.333314,682.66665 L789.333314,810.72398 C789.333314,864.710645 815.77998,917.33331 900.583977,917.33331 L986.666642,917.33331 L986.666642,1085.33331 C986.666642,1085.33331 908.542644,1098.66664 833.853312,1098.66664 C677.917316,1098.66664 575.999986,1004.15997 575.999986,833.066646 L575.999986,682.66665 L402.666657,682.66665 L402.666657,485.333321 L575.999986,485.333321 L575.999986,8.29322646 C610.755985,2.8401066 646.378651,0 682.666657,0 C718.954649,0 754.577314,2.8401066 789.333314,8.29322646 L789.333314,485.333321 L948.399976,485.333321 L978.666642,682.66665 Z" id="path16" fill-opacity="0" fill="#0F0F0F"></path>
            </g>
        </g>
    </g>
</svg>