<?xml version="1.0" encoding="UTF-8"?>
<svg width="93px" height="133px" viewBox="0 0 93 133" version="1.1" xmlns="http://www.w3.org/2000/svg" xmlns:xlink="http://www.w3.org/1999/xlink">
    <title>ic_fluent_call_24_filled</title>
    <g id="Page-1" stroke="none" stroke-width="1" fill="none" fill-rule="evenodd">
        <g id="Artboard" transform="translate(-76.000000, -111.000000)" fill="#42C52A" fill-rule="nonzero">
            <g id="ic_fluent_call_24_filled" transform="translate(76.000000, 111.000000)">
                <path d="M15.6982169,2.91811953 L22.8458609,0.630492555 C29.5550806,-1.5108327 36.7093673,1.95385816 39.5856962,8.72363799 L45.2918543,22.209997 C47.7762585,28.0820163 46.4012006,34.9914478 41.8774594,39.2873984 L29.2960117,51.2442394 C30.0665755,58.3997238 32.4712662,65.4421569 36.496798,72.3715386 C40.3216096,79.0762172 45.4514668,84.944373 51.5825782,89.6284921 L66.6949295,84.5744325 C72.4276588,82.66586 78.6652403,84.8670359 82.1726344,90.0341469 L90.3631967,102.070789 C94.4485136,108.08246 93.7178065,116.368457 88.6493564,121.462417 L83.2155527,126.922132 C77.8083202,132.355246 70.0827533,134.330319 62.9417521,132.095893 C46.0757038,126.829031 30.5714277,111.194696 16.4222812,85.1928898 C2.25320629,59.1511827 -2.74881594,37.046322 1.42285731,18.9049081 C3.17655435,11.270618 8.60371524,5.18579627 15.6982169,2.91811953 L15.6982169,2.91811953 Z" id="Path"></path>
            </g>
        </g>
    </g>
</svg>