<?xml version="1.0" encoding="UTF-8"?>
<svg width="48px" height="48px" viewBox="0 0 48 48" version="1.1" xmlns="http://www.w3.org/2000/svg" xmlns:xlink="http://www.w3.org/1999/xlink">
    <title>VK_Compact_Logo</title>
    <g id="Page-1" stroke="none" stroke-width="1" fill="none" fill-rule="evenodd">
        <g id="VK_Compact_Logo" transform="translate(0.001953, 0.001953)" fill="#FFFFFF" fill-rule="nonzero">
            <path d="M44.6239474,3.37217738 C47.7731074,6.52136538 47.9830514,11.461915 47.9970476,20.9372164 L47.9979224,21.9699046 C47.9979849,22.144953 47.9980161,22.3214787 47.9980318,22.4994973 L47.9980474,24.9580474 C47.9980474,25.3200874 47.9980474,25.6760933 47.9979224,26.02619 L47.9970476,27.0588779 C47.9830514,36.5341749 47.7731074,41.474694 44.6239474,44.6239474 C41.474694,47.7731074 36.5341749,47.9830514 27.0588779,47.9970476 L26.02619,47.9979224 C25.8511416,47.9979849 25.674616,47.9980161 25.4965974,47.9980318 L23.0380474,47.9980474 C22.6760074,47.9980474 22.3200014,47.9980474 21.9699046,47.9979224 L20.9372164,47.9970476 C11.461915,47.9830514 6.52136538,47.7731074 3.37217738,44.6239474 C0.166753878,41.4184574 0.00648270347,36.3571566 -0.00153085528,26.5469189 L-0.00153085528,21.4491755 C0.00648270347,11.6389344 0.166753878,6.57760088 3.37217738,3.37217738 C6.57760088,0.166753878 11.6389344,0.00648270347 21.4491755,-0.00153085528 L26.5469189,-0.00153085528 C36.3571566,0.00648270347 41.4184574,0.166753878 44.6239474,3.37217738 Z M13.5781474,14.5981474 L8.09814738,14.5981474 C8.35814738,27.0781474 14.5980474,34.5781474 25.5380474,34.5781474 L25.5380474,34.5781474 L26.1582474,34.5781474 L26.1582474,27.4381474 C30.1782474,27.8381474 33.2179474,30.7781474 34.4379474,34.5781474 L34.4379474,34.5781474 L40.1181474,34.5781474 C38.5581474,28.8981474 34.4579474,25.7581474 31.8979474,24.5581474 C34.4579474,23.0781474 38.0579474,19.4781474 38.9179474,14.5981474 L38.9179474,14.5981474 L33.7578474,14.5981474 C32.6378474,18.5581474 29.3182474,22.1581474 26.1582474,22.4981474 L26.1582474,22.4981474 L26.1582474,14.5981474 L20.9980474,14.5981474 L20.9980474,28.4381474 C17.7980474,27.6381474 13.7581474,23.7581474 13.5781474,14.5981474 L13.5781474,14.5981474 Z" id="Combined-Shape"></path>
        </g>
    </g>
</svg>